<svg id="Capa_1" enable-background="new 0 0 512.026 512.026" height="512" viewBox="0 0 512.026 512.026" width="512" xmlns="http://www.w3.org/2000/svg"><g><g><g clip-rule="evenodd" fill-rule="evenodd"><path d="m256.016 236.651v-199.152h-30v199.151c0 16.441-13.559 30-30 30-8.284 0-15 6.716-15 15s6.716 15 15 15c17.287 0 33.586-7.472 45-20.428 11.016 12.504 27.127 20.428 45 20.428 8.284 0 15-6.716 15-15s-6.716-15-15-15c-16.441.001-30-13.558-30-29.999z" fill="#fbf2e2"/><path d="m192.356 197.992c-2.543-22.764-15.232-40.649-33.394-43.378-110.568-16.611-151.795 215.598-151.446 288.229.488 101.906 67.017 45.596 120.371 50.486 75.576 6.926 68.644-100.505 68.129-196.678-8.291-.004-15-6.717-15-15 0-8.284 6.716-15 15-15-.02-15.389-.283-38.431-3.66-68.659zm93.668 68.659c8.28.005 14.991 6.718 14.991 15 0 8.284-6.716 15-15 15-.515 96.173-7.446 203.604 68.129 196.678 53.354-4.889 119.882 51.42 120.371-50.486.236-49.215-18.627-171.678-65.207-240.37-18.281.421-36.169-4.206-51.909-13.528h-34.332v-34.331c-18.162 2.73-30.85 20.615-33.392 43.378-.501 4.49-5.426 68.659-3.651 68.659z" fill="#eab8d5"/><path d="m323.067 188.945h34.332c14.535 8.608 31.494 13.554 49.614 13.554 53.849 0 97.5-43.64 97.5-97.5 0-53.855-43.645-97.5-97.5-97.5s-97.5 43.645-97.5 97.5c0 18.12 4.946 35.081 13.554 49.615zm68.946-46.445v-22.5h-22.5v-30.001h22.5v-22.499h30.001v22.5h22.5v30h-22.5v22.5z" fill="#a4d7f5"/><path d="m392.013 120v22.5h30v-22.5h22.5v-30.001h-22.5v-22.499h-30v22.499h-22.5v30.001z" fill="#d15573"/><path d="m207 264.539c-3.407 1.361-7.112 2.111-10.976 2.112-8.289 0-15.009 6.708-15.009 15 0 8.284 6.716 15 15 15 10.572 0 20.782-2.799 29.729-7.939-17.707 2.161-29.537-11.265-18.744-24.173zm68.031 0c3.407 1.361 7.112 2.111 10.976 2.112 8.289 0 15.009 6.708 15.009 15 0 8.284-6.716 15-15 15-10.572 0-20.782-2.799-29.729-7.939 17.708 2.161 29.537-11.265 18.744-24.173z" fill="#f7e0ba"/><path d="m196.007 266.651c-8.28.005-14.991 6.718-14.991 15 0 8.284 6.716 15 15 15 .515 96.173 7.446 203.604-68.129 196.678 49.99-12.409 47.097-127.272 45.892-181.487-9.255-6.83-15.262-17.812-15.262-30.191 0-12.537 6.161-23.64 15.619-30.449-1.121-20.238-2.792-82.143-15.171-96.588 18.162 2.73 30.85 20.615 33.392 43.378.501 4.49 5.426 68.659 3.65 68.659zm226.173-42.602c-4.967.627-10.029.951-15.167.951-19.376 0-38.332-4.632-55.435-13.554h-41.216c-1.583 14.533-1.881 29.213-2.465 39.757 9.457 6.809 15.619 17.912 15.619 30.449 0 12.379-6.007 23.362-15.262 30.191-1.205 54.214-4.098 169.078 45.892 181.487-75.576 6.926-68.644-100.505-68.129-196.678 8.284 0 15-6.716 15-15 0-8.282-6.711-14.995-14.991-15-1.776 0 3.149-64.169 3.651-68.659 2.543-22.763 15.231-40.648 33.392-43.378v34.331h34.332c15.74 9.322 33.629 13.949 51.909 13.528 4.553 6.715 8.838 13.95 12.87 21.575z" fill="#df95c0"/></g><g><path d="m428.411 316.372h-15v-15h15zm-15.001-29.999h-15v-15h15z" fill="#fff"/></g><path clip-rule="evenodd" d="m323.067 188.945h22.5v-34.331c-8.609-14.533-13.554-31.495-13.554-49.615 0-50.049 37.697-91.273 86.25-96.85-57.806-6.64-108.75 38.375-108.75 96.85 0 18.12 4.946 35.081 13.554 49.615z" fill="#6e91ef" fill-rule="evenodd"/></g><g><path d="m512.013 105c0-57.897-47.103-105-105-105s-105 47.103-105 105c0 15.631 3.486 31.012 10.13 45.012-16.02 6.933-27.378 24.382-29.922 47.148-2.722 24.375-3.47 44.165-3.651 60.669-8.667-3.152-15.054-11.577-15.054-21.177v-45h-15v45c0 20.678 16.823 37.5 37.5 37.5 4.135 0 7.499 3.365 7.499 7.5s-3.364 7.5-7.499 7.5c-15.008 0-29.358-6.519-39.373-17.886l-5.627-6.387-5.627 6.387c-10.015 11.367-24.365 17.886-39.373 17.886-4.135 0-7.5-3.365-7.5-7.5s3.365-7.5 7.5-7.5c20.677 0 37.5-16.822 37.5-37.5v-191.652h15v101.652h15v-116.652h-45v206.651c0 9.601-6.387 18.025-15.054 21.177-.182-16.513-.931-36.307-3.652-60.669-3.036-27.181-18.632-46.792-39.734-49.963-22.606-3.396-43.862 2.494-63.18 17.507-26.687 20.74-49.276 58.34-67.141 111.755-18.807 56.237-25.656 110.158-27.727 130.73l14.925 1.503c6.607-65.624 32.819-188.365 89.148-232.143 16.173-12.57 33.1-17.319 51.747-14.517 14.177 2.13 24.796 16.572 27.055 36.794 2.5 22.384 3.292 40.845 3.524 56.405-13.432-5.193-28.27-8.878-42.843-10.563-13.917-1.61-33.966-2.13-50.455 4.528l5.616 13.909c8.454-3.413 19.855-4.779 32.405-4.296l-10.854 20.694 13.284 6.967 13.698-26.117c9.753 1.465 19.722 3.911 29.206 7.219-3.104 3.858-4.967 8.753-4.967 14.078 0 4.817 1.526 9.281 4.114 12.946-14.094 6.309-26.99 16.725-38.028 28.008l-55.565 10.245 2.72 14.751 36.962-6.815c-1.198 1.522-2.357 3.03-3.473 4.514-21.614 28.727-40.213 65.68-51.027 101.385l14.356 4.348c5.381-17.767 12.99-36.286 22.134-53.963l21.669 39.056 13.116-7.277-26.237-47.289c21.051-35.88 47.99-65.907 74.329-75.202.033 3.741.069 7.49.107 11.245.66 65.58 1.343 133.392-25.763 158.378-8.651 7.975-19.895 11.206-34.36 9.881-16.582-1.521-33.539 2.273-49.938 5.941-21.134 4.727-39.384 8.809-50.141.235-8.82-7.03-13.354-23.594-13.477-49.229-.027-5.655.206-12.188.691-19.416l-14.966-1.005c-.509 7.585-.753 14.479-.724 20.493.15 31.257 6.228 50.605 19.127 60.887 7.676 6.119 16.703 8.261 26.588 8.26 11.201 0 23.503-2.751 36.176-5.586 15.269-3.416 31.063-6.947 45.294-5.643 18.674 1.711 34.114-2.929 45.896-13.789 32.005-29.503 31.288-100.703 30.595-169.558-.046-4.594-.089-9.175-.125-13.746 13.888-1.58 26.988-7.462 37.448-16.845 10.459 9.383 23.559 15.265 37.448 16.845-.037 4.569-.079 9.15-.126 13.742-.693 68.857-1.41 140.058 30.595 169.561 11.782 10.861 27.229 15.501 45.896 13.79 14.238-1.305 30.025 2.227 45.294 5.642 12.675 2.835 24.975 5.587 36.177 5.586 9.884 0 18.914-2.143 26.589-8.26 12.899-10.282 18.978-29.63 19.127-60.888.23-48.266-17.184-162.67-59.75-233.99 50.695-7.409 89.748-51.17 89.748-103.887zm-105-90c49.626 0 90 40.374 90 90s-40.374 90-90 90c-16.141 0-31.976-4.325-45.793-12.507l-1.768-1.047h-28.885v-28.886l-1.047-1.768c-8.183-13.813-12.508-29.646-12.508-45.791.001-49.627 40.375-90.001 90.001-90.001zm60.003 427.807c-.123 25.636-4.657 42.2-13.478 49.23-10.756 8.574-29.008 4.493-50.141-.235-16.398-3.668-33.35-7.46-49.938-5.941-14.468 1.328-25.709-1.906-34.36-9.881-27.105-24.987-26.423-92.8-25.762-158.381.038-3.755.074-7.504.107-11.245 26.341 9.291 53.283 39.32 74.336 75.204l-26.237 47.289 13.117 7.277 21.669-39.056c9.144 17.677 16.753 36.197 22.135 53.964l14.355-4.348c-10.813-35.705-29.412-72.658-51.026-101.385-1.162-1.544-2.32-3.05-3.47-4.513l36.958 6.814 2.721-14.751-55.527-10.238c-14.23-14.555-27.15-23.091-38.091-27.992 2.597-3.668 4.13-8.141 4.13-12.968 0-5.324-1.863-10.219-4.965-14.076 9.485-3.31 19.456-5.757 29.213-7.222l13.698 26.117 13.283-6.968-10.854-20.694c12.555-.477 23.952.885 32.404 4.296l5.615-13.909c-16.489-6.657-36.537-6.137-50.454-4.528-14.577 1.686-29.418 5.372-42.852 10.566.231-15.554 1.023-34.011 3.525-56.409 1.772-15.866 8.693-28.172 18.438-33.766v31.387h39.818c15.195 8.591 32.366 13.238 49.895 13.526 23.95 36.911 38.678 86.279 46.881 121.683 11.129 48.022 14.959 89.89 14.857 111.153z"/><path d="m384.513 150h45v-22.5h22.5v-45h-22.5v-22.5h-45v22.5h-22.5v45h22.5zm-7.5-37.5v-15h22.5v-22.5h15v22.5h22.5v15h-22.5v22.5h-15v-22.5z"/><path d="m248.516 161.651h15v15h-15z"/></g></g></svg>